<?xml version="1.0" encoding="UTF-8"?>
<svg width="573px" height="280px" viewBox="0 0 573 280" xmlns="http://www.w3.org/2000/svg" xmlns:xlink="http://www.w3.org/1999/xlink" version="1.1">
 <!-- Generated by Pixelmator Pro 1.3.4 -->
 <path id="path" d="M213.5 127 L148.115 165.25 148.115 241.75 213.5 280 278.885 241.75 278.885 165.25 Z" fill="#ffd000" fill-opacity="1" stroke="none"/>
 <path id="path-1" d="M204.552 159.2 L223.648 159.2 223.648 246 204.552 246 Z" fill="#ffffff" fill-opacity="1" stroke="none"/>
 <path id="path-2" d="M288.5 0 L223.115 38.25 223.115 114.75 288.5 153 353.885 114.75 353.885 38.25 Z" fill="#ffd000" fill-opacity="1" stroke="none"/>
 <defs>
  <path id="path-3" d="M277.552 31.2 L296.648 31.2 296.648 118 277.552 118 Z"/>
 </defs>
 <use id="i" xlink:href="#path-3" fill="#ffcc35" fill-opacity="1" stroke="none"/>
 <use id="i-1" xlink:href="#path-3" fill="#ffffff" fill-opacity="1" stroke="none"/>
 <path id="path-4" d="M434.5 0 L369.115 38.25 369.115 114.75 434.5 153 499.885 114.75 499.885 38.25 Z" fill="#ffd000" fill-opacity="1" stroke="none"/>
 <defs>
  <path id="path-5" d="M435.856 73.36 C440.568 73.36 444.185 72.244 446.706 70.012 449.227 67.78 450.488 64.804 450.488 61.084 L450.488 60.836 C450.488 56.703 449.165 53.603 446.52 51.536 443.875 49.469 440.196 48.436 435.484 48.436 L416.512 48.436 416.512 73.36 Z M397.416 31.2 L437.096 31.2 C448.091 31.2 456.523 34.135 462.392 40.004 467.352 44.964 469.832 51.578 469.832 59.844 L469.832 60.092 C469.832 67.119 468.117 72.844 464.686 77.266 461.255 81.689 456.771 84.933 451.232 87 L472.436 118 450.116 118 431.516 90.224 431.268 90.224 416.512 90.224 416.512 118 397.416 118 Z"/>
 </defs>
 <use id="r" xlink:href="#path-5" fill="#ffcc35" fill-opacity="1" stroke="none"/>
 <use id="r-1" xlink:href="#path-5" fill="#ffffff" fill-opacity="1" stroke="none"/>
 <path id="path-6" d="M507.5 127 L442.115 165.25 442.115 241.75 507.5 280 572.885 241.75 572.885 165.25 Z" fill="#ffd000" fill-opacity="1" stroke="none"/>
 <defs>
  <path id="path-7" d="M476.416 159.2 L541.888 159.2 541.888 176.188 495.388 176.188 495.388 193.796 536.308 193.796 536.308 210.784 495.388 210.784 495.388 229.012 542.508 229.012 542.508 246 476.416 246 Z"/>
 </defs>
 <use id="e" xlink:href="#path-7" fill="#ffcc35" fill-opacity="1" stroke="none"/>
 <use id="e-1" xlink:href="#path-7" fill="#ffffff" fill-opacity="1" stroke="none"/>
 <path id="path-8" d="M361.5 127 L296.115 165.25 296.115 241.75 361.5 280 426.885 241.75 426.885 165.25 Z" fill="#ffd000" fill-opacity="1" stroke="none"/>
 <defs>
  <path id="path-9" d="M314.976 159.2 L336.056 159.2 358.748 220.332 381.44 159.2 402.024 159.2 366.932 246.62 350.068 246.62 Z"/>
 </defs>
 <use id="v" xlink:href="#path-9" fill="#ffcc35" fill-opacity="1" stroke="none"/>
 <use id="v-1" xlink:href="#path-9" fill="#ffffff" fill-opacity="1" stroke="none"/>
 <path id="path-10" d="M140.5 0 L75.115 38.25 75.115 114.75 140.5 153 205.885 114.75 205.885 38.25 Z" fill="#ffd000" fill-opacity="1" stroke="none"/>
 <defs>
  <path id="path-11" d="M152.264 82.668 L140.732 54.52 129.2 82.668 Z M132.176 31.58 L149.784 31.58 186.984 119 167.02 119 159.084 99.532 122.38 99.532 114.444 119 94.976 119 Z"/>
 </defs>
 <use id="a" xlink:href="#path-11" fill="#ffcc35" fill-opacity="1" stroke="none"/>
 <use id="a-1" xlink:href="#path-11" fill="#ffffff" fill-opacity="1" stroke="none"/>
 <path id="path-12" d="M66.5 126 L1.115 164.25 1.115 240.75 66.5 279 131.885 240.75 131.885 164.25 Z" fill="#ffd000" fill-opacity="1" stroke="none"/>
 <defs>
  <path id="path-13" d="M28.416 159.2 L47.512 159.2 47.512 193.548 82.728 193.548 82.728 159.2 101.824 159.2 101.824 246 82.728 246 82.728 211.156 47.512 211.156 47.512 246 28.416 246 Z"/>
 </defs>
 <use id="h" xlink:href="#path-13" fill="#ffcc35" fill-opacity="1" stroke="none"/>
 <use id="h-1" xlink:href="#path-13" fill="#ffffff" fill-opacity="1" stroke="none"/>
</svg>
